      <svg  height="40" viewBox="0 0 240 53" fill="none" xmlns="http://www.w3.org/2000/svg">
        <path d="M5.41113 25.9575C5.64062 25.4985 5.93132 24.9325 6.2832 24.2593C6.65039 23.5708 7.02523 22.8823 7.40771 22.1938C7.8055 21.5054 8.18799 20.8551 8.55518 20.2432C8.93766 19.6312 9.25895 19.1646 9.51904 18.8433C9.96273 18.3078 10.4217 17.9253 10.896 17.6958C11.3703 17.4663 11.8063 17.3516 12.2041 17.3516C12.6019 17.3516 12.9385 17.4357 13.2139 17.604C13.5046 17.7723 13.7417 18.0018 13.9253 18.2925C14.1089 18.5679 14.2466 18.8968 14.3384 19.2793C14.4302 19.6465 14.4761 20.0443 14.4761 20.4727C14.4761 20.7174 14.4608 21.0387 14.4302 21.4365C14.4149 21.8343 14.3919 22.2627 14.3613 22.7217C14.346 23.1807 14.3231 23.6549 14.2925 24.1445C14.2772 24.6341 14.2619 25.0931 14.2466 25.5215C14.4761 25.0625 14.7362 24.5576 15.0269 24.0068C15.3175 23.4408 15.6082 22.8823 15.8989 22.3315C16.2049 21.7808 16.4956 21.2682 16.771 20.7939C17.0464 20.3044 17.2988 19.9066 17.5283 19.6006C18.1862 18.6979 18.7982 18.0936 19.3643 17.7876C19.9456 17.4816 20.4582 17.3286 20.9019 17.3286C21.422 17.3286 21.8504 17.4281 22.187 17.627C22.5236 17.8105 22.7837 18.0553 22.9673 18.3613C23.1662 18.652 23.3039 18.981 23.3804 19.3481C23.4569 19.7153 23.4951 20.0672 23.4951 20.4038C23.4951 20.924 23.4569 21.4671 23.3804 22.0332C23.3039 22.5993 23.2656 23.2725 23.2656 24.0527C23.2656 24.374 23.2809 24.6953 23.3115 25.0166C23.3421 25.3379 23.4033 25.6209 23.4951 25.8657C23.6022 26.1105 23.7629 26.3094 23.9771 26.4624C24.1912 26.6154 24.4819 26.6919 24.8491 26.6919C25.2469 26.6919 25.637 26.5924 26.0195 26.3936C26.402 26.1794 26.7692 25.904 27.1211 25.5674C27.473 25.2308 27.8019 24.8483 28.1079 24.4199C28.4292 23.9915 28.7199 23.5632 28.98 23.1348C29.2401 22.7064 29.4696 22.3009 29.6685 21.9185C29.8674 21.5207 30.028 21.1841 30.1504 20.9087C30.2269 20.7404 30.334 20.6104 30.4717 20.5186C30.6094 20.4268 30.7624 20.3809 30.9307 20.3809C31.1908 20.3809 31.3973 20.4803 31.5503 20.6792C31.7186 20.8628 31.8027 21.0617 31.8027 21.2759C31.8027 21.383 31.7798 21.4901 31.7339 21.5972C31.6727 21.7196 31.5503 21.9797 31.3667 22.3774C31.1831 22.7599 30.9383 23.2036 30.6323 23.7085C30.3263 24.1981 29.9668 24.7183 29.5537 25.269C29.1559 25.8198 28.7122 26.3324 28.2227 26.8066C27.7331 27.2656 27.2052 27.6481 26.6392 27.9541C26.0731 28.2448 25.4764 28.3901 24.8491 28.3901C24.1759 28.3901 23.6252 28.2677 23.1968 28.0229C22.7837 27.7935 22.4471 27.4798 22.187 27.082C21.9422 26.6842 21.7739 26.2253 21.6821 25.7051C21.5903 25.1849 21.5444 24.6418 21.5444 24.0757C21.5444 23.326 21.5827 22.6375 21.6592 22.0103C21.7357 21.3677 21.7739 20.8704 21.7739 20.5186C21.7739 20.1361 21.7357 19.8454 21.6592 19.6465C21.598 19.4476 21.5138 19.3099 21.4067 19.2334C21.3149 19.1416 21.2231 19.0957 21.1313 19.0957C21.0396 19.0804 20.9707 19.0728 20.9248 19.0728C20.5576 19.0728 20.1675 19.2793 19.7544 19.6924C19.3566 20.0902 18.9435 20.6257 18.5151 21.2988C18.0868 21.972 17.6431 22.737 17.1841 23.5938C16.7404 24.4505 16.2891 25.3226 15.8301 26.21C15.57 26.6995 15.3481 27.105 15.1646 27.4263C14.9963 27.7476 14.828 28 14.6597 28.1836C14.5067 28.3672 14.3537 28.4972 14.2007 28.5737C14.0477 28.6502 13.8794 28.6885 13.6958 28.6885C13.298 28.6885 12.992 28.5508 12.7778 28.2754C12.5789 28 12.4795 27.6405 12.4795 27.1968C12.4795 26.9673 12.4871 26.6613 12.5024 26.2788C12.5177 25.8963 12.533 25.4756 12.5483 25.0166C12.5636 24.5576 12.5866 24.0833 12.6172 23.5938C12.6478 23.1042 12.6707 22.6375 12.686 22.1938C12.7013 21.7349 12.7166 21.3294 12.7319 20.9775C12.7472 20.6257 12.7549 20.3579 12.7549 20.1743C12.7549 19.7765 12.686 19.4935 12.5483 19.3252C12.4106 19.1416 12.25 19.0498 12.0664 19.0498C11.8981 19.0498 11.7069 19.111 11.4927 19.2334C11.2938 19.3558 11.0566 19.5929 10.7812 19.9448C10.5671 20.2202 10.2917 20.6257 9.95508 21.1611C9.63379 21.6813 9.28955 22.2627 8.92236 22.9053C8.55518 23.5479 8.18799 24.2057 7.8208 24.8789C7.46891 25.5521 7.16292 26.1564 6.90283 26.6919C6.58154 27.3345 6.26025 27.7705 5.93896 28C5.61768 28.2448 5.30404 28.3672 4.99805 28.3672C4.55436 28.3672 4.22542 28.2371 4.01123 27.9771C3.79704 27.7017 3.68994 27.3421 3.68994 26.8984C3.68994 26.8525 3.69759 26.5771 3.71289 26.0723C3.74349 25.5674 3.77409 24.9554 3.80469 24.2363C3.83529 23.502 3.86589 22.7217 3.89648 21.8955C3.94238 21.0693 3.98063 20.2967 4.01123 19.5776C4.02653 19.1951 4.01123 18.8433 3.96533 18.522C3.91943 18.2007 3.85824 18.0094 3.78174 17.9482C3.65934 17.9788 3.41455 18.2619 3.04736 18.7974C2.69548 19.3328 2.24414 20.2661 1.69336 21.5972C1.61686 21.7655 1.50212 21.8955 1.34912 21.9873C1.19613 22.0791 1.03548 22.125 0.867188 22.125C0.607096 22.125 0.400553 22.0409 0.247559 21.8726C0.0945638 21.689 0.0180664 21.4824 0.0180664 21.2529C0.0180664 21.1458 0.0410156 21.0311 0.0869141 20.9087C0.775391 19.2716 1.43327 18.0706 2.06055 17.3057C2.68783 16.5254 3.2998 16.1353 3.89648 16.1353C4.24837 16.1353 4.53906 16.2194 4.76855 16.3877C5.01335 16.5407 5.20459 16.7472 5.34229 17.0073C5.47998 17.2521 5.57943 17.5352 5.64062 17.8564C5.70182 18.1777 5.73242 18.4914 5.73242 18.7974C5.73242 20.159 5.69417 21.4059 5.61768 22.5381C5.55648 23.6702 5.48763 24.8101 5.41113 25.9575ZM33.9141 9.98486C33.9141 10.5662 33.7075 11.0635 33.2944 11.4766C32.8966 11.8743 32.4071 12.0732 31.8257 12.0732C31.2443 12.0732 30.7471 11.8743 30.334 11.4766C29.9362 11.0635 29.7373 10.5662 29.7373 9.98486C29.7373 9.69417 29.7909 9.42643 29.8979 9.18164C30.005 8.92155 30.1504 8.69971 30.334 8.51611C30.5329 8.31722 30.7547 8.16423 30.9995 8.05713C31.2596 7.95003 31.535 7.89648 31.8257 7.89648C32.1164 7.89648 32.3841 7.95003 32.6289 8.05713C32.889 8.16423 33.1108 8.31722 33.2944 8.51611C33.4933 8.69971 33.6463 8.92155 33.7534 9.18164C33.8605 9.42643 33.9141 9.69417 33.9141 9.98486ZM30.1963 23.4331C30.1963 21.23 30.334 19.0345 30.6094 16.8467C30.64 16.6325 30.7318 16.4489 30.8848 16.2959C31.0531 16.1276 31.2673 16.0435 31.5273 16.0435C31.7568 16.0435 31.9481 16.1353 32.1011 16.3188C32.2541 16.4871 32.3306 16.686 32.3306 16.9155C32.3306 17.0073 32.3076 17.2827 32.2617 17.7417C32.2311 18.2007 32.1852 18.7515 32.124 19.394C32.0781 20.0213 32.0322 20.6945 31.9863 21.4136C31.9557 22.1174 31.9404 22.7676 31.9404 23.3643C31.9404 24.1751 32.0169 24.833 32.1699 25.3379C32.3382 25.8275 32.5448 26.21 32.7896 26.4854C33.0496 26.7607 33.3174 26.9443 33.5928 27.0361C33.8835 27.1279 34.1589 27.1738 34.4189 27.1738C34.8473 27.1738 35.291 27.0208 35.75 26.7148C36.209 26.4089 36.6756 25.9805 37.1499 25.4297C37.6395 24.8789 38.1291 24.221 38.6187 23.4561C39.1082 22.6758 39.5902 21.8114 40.0645 20.8628C40.141 20.7098 40.248 20.5951 40.3857 20.5186C40.5234 20.4268 40.6764 20.3809 40.8447 20.3809C41.0895 20.3809 41.2884 20.4727 41.4414 20.6562C41.6097 20.8398 41.6938 21.0387 41.6938 21.2529C41.6938 21.4059 41.6632 21.536 41.6021 21.6431C41.4185 21.995 41.189 22.4233 40.9136 22.9282C40.6382 23.4331 40.3245 23.9533 39.9727 24.4888C39.6208 25.0243 39.2306 25.5597 38.8022 26.0952C38.3892 26.6154 37.9455 27.0897 37.4712 27.5181C36.9969 27.9312 36.4997 28.2677 35.9795 28.5278C35.4593 28.7879 34.9315 28.918 34.396 28.918C33.7075 28.918 33.1032 28.7726 32.583 28.4819C32.0628 28.1912 31.6191 27.8011 31.252 27.3115C30.9001 26.8219 30.6323 26.2482 30.4487 25.5903C30.2804 24.9172 30.1963 24.1981 30.1963 23.4331ZM32.6289 9.98486C32.6289 9.77067 32.5448 9.58708 32.3765 9.43408C32.2235 9.26579 32.0399 9.18164 31.8257 9.18164C31.6115 9.18164 31.4279 9.26579 31.2749 9.43408C31.1219 9.58708 31.0454 9.77067 31.0454 9.98486C31.0454 10.1991 31.1219 10.3826 31.2749 10.5356C31.4279 10.6886 31.6115 10.7651 31.8257 10.7651C32.0399 10.7651 32.2235 10.6886 32.3765 10.5356C32.5448 10.3826 32.6289 10.1991 32.6289 9.98486ZM55.0503 21.6431C54.9585 21.8114 54.7979 22.1174 54.5684 22.561C54.3542 23.0047 54.0558 23.5096 53.6733 24.0757C53.3062 24.6265 52.8625 25.2002 52.3423 25.7969C51.8221 26.3936 51.2254 26.9443 50.5522 27.4492C49.8791 27.9388 49.1217 28.3442 48.2803 28.6655C47.4541 28.9868 46.5514 29.1475 45.5723 29.1475C44.7002 29.1475 43.9276 28.9868 43.2544 28.6655C42.5812 28.3595 42.0075 27.9235 41.5332 27.3574C41.0589 26.776 40.6994 26.0952 40.4546 25.3149C40.2098 24.5347 40.0874 23.6702 40.0874 22.7217C40.0874 21.8037 40.2174 20.9469 40.4775 20.1514C40.7376 19.3405 41.0895 18.6367 41.5332 18.04C41.9922 17.4434 42.52 16.9767 43.1167 16.6401C43.7134 16.2882 44.3483 16.1123 45.0215 16.1123C45.5264 16.1123 45.9854 16.2041 46.3984 16.3877C46.8115 16.556 47.1558 16.7855 47.4312 17.0762C47.7218 17.3669 47.9437 17.6882 48.0967 18.04C48.265 18.3919 48.3491 18.7438 48.3491 19.0957C48.3491 19.4323 48.3032 19.7459 48.2114 20.0366C48.1349 20.3273 48.0278 20.5874 47.8901 20.8169C47.7677 21.0311 47.6224 21.207 47.4541 21.3447C47.2858 21.4671 47.1175 21.5283 46.9492 21.5283C46.6891 21.5283 46.4749 21.4442 46.3066 21.2759C46.1536 21.1076 46.0771 20.901 46.0771 20.6562C46.0771 20.5339 46.1001 20.4268 46.146 20.335C46.2072 20.2432 46.2684 20.1514 46.3296 20.0596C46.4061 19.9525 46.4673 19.8301 46.5132 19.6924C46.5744 19.5394 46.605 19.3481 46.605 19.1187C46.605 18.7974 46.452 18.5067 46.146 18.2466C45.8553 17.9865 45.4805 17.8564 45.0215 17.8564C44.5931 17.8564 44.18 17.9865 43.7822 18.2466C43.3997 18.5067 43.0632 18.8586 42.7725 19.3022C42.4818 19.7306 42.2446 20.2432 42.061 20.8398C41.8927 21.4212 41.8086 22.0409 41.8086 22.6987C41.8086 23.326 41.8851 23.9227 42.0381 24.4888C42.1911 25.0549 42.4206 25.5597 42.7266 26.0034C43.0326 26.4318 43.415 26.776 43.874 27.0361C44.3483 27.2962 44.9067 27.4263 45.5493 27.4263C46.3755 27.4263 47.1405 27.2809 47.8442 26.9902C48.548 26.6842 49.1906 26.3018 49.772 25.8428C50.3534 25.3838 50.8659 24.8866 51.3096 24.3511C51.7533 23.8003 52.1281 23.2878 52.4341 22.8135C52.7554 22.3239 53.0002 21.9032 53.1685 21.5513C53.3521 21.1841 53.4591 20.9546 53.4897 20.8628C53.5509 20.7098 53.6504 20.5951 53.7881 20.5186C53.9411 20.4268 54.1017 20.3809 54.27 20.3809C54.5301 20.3809 54.7367 20.4727 54.8896 20.6562C55.0579 20.8398 55.1421 21.0464 55.1421 21.2759C55.1421 21.3677 55.1115 21.4901 55.0503 21.6431ZM55.8994 18.5679C55.8382 18.981 55.7617 19.3711 55.6699 19.7383C55.5781 20.0902 55.4863 20.4038 55.3945 20.6792C55.318 20.9393 55.2492 21.1535 55.188 21.3218C55.1268 21.4901 55.0885 21.5819 55.0732 21.5972C54.9202 21.9491 54.6525 22.125 54.27 22.125C54.0558 22.125 53.8569 22.0485 53.6733 21.8955C53.4897 21.7272 53.3979 21.5207 53.3979 21.2759C53.3979 21.1841 53.4132 21.1152 53.4438 21.0693C53.4744 21.0234 53.5203 20.9316 53.5815 20.7939C53.6427 20.6562 53.7192 20.4268 53.811 20.1055C53.9028 19.7842 54.0176 19.2869 54.1553 18.6138C53.8952 18.6138 53.6274 18.6061 53.3521 18.5908C53.0767 18.5755 52.8242 18.522 52.5947 18.4302C52.3499 18.3384 52.151 18.193 51.998 17.9941C51.8451 17.7952 51.7686 17.5199 51.7686 17.168C51.7686 16.9079 51.8451 16.556 51.998 16.1123C52.1357 15.6686 52.327 15.2326 52.5718 14.8042C52.8166 14.3758 53.092 14.0086 53.3979 13.7026C53.7039 13.3813 54.0099 13.2207 54.3159 13.2207C54.6678 13.2207 54.9508 13.3507 55.165 13.6108C55.3945 13.8709 55.5705 14.1922 55.6929 14.5747C55.8153 14.9419 55.8994 15.332 55.9453 15.7451C56.0065 16.1582 56.0371 16.5177 56.0371 16.8237C56.2972 16.8237 56.5496 16.8237 56.7944 16.8237C57.0545 16.8084 57.2993 16.8008 57.5288 16.8008C58.4009 16.8008 59.0664 16.992 59.5254 17.3745C59.9844 17.757 60.2139 18.3843 60.2139 19.2563C60.2139 19.6082 60.1909 19.9754 60.145 20.3579C60.0991 20.7404 60.0456 21.1382 59.9844 21.5513C59.9232 21.9491 59.8696 22.3468 59.8237 22.7446C59.7778 23.1424 59.7549 23.5326 59.7549 23.915C59.7549 24.4658 59.8314 24.9248 59.9844 25.292C60.1374 25.6439 60.3286 25.9269 60.5581 26.1411C60.7876 26.3553 61.0324 26.5083 61.2925 26.6001C61.5526 26.6766 61.7897 26.7148 62.0039 26.7148C62.6618 26.7148 63.2814 26.5007 63.8628 26.0723C64.4442 25.6439 64.9797 25.1313 65.4692 24.5347C65.9588 23.9227 66.3949 23.2801 66.7773 22.6069C67.1751 21.9338 67.5041 21.3447 67.7642 20.8398C67.8407 20.7021 67.9478 20.5951 68.0854 20.5186C68.2231 20.4421 68.3685 20.4038 68.5215 20.4038C68.7969 20.4038 69.0111 20.4956 69.1641 20.6792C69.3171 20.8475 69.3936 21.0387 69.3936 21.2529C69.3936 21.4059 69.363 21.5436 69.3018 21.666C68.9499 22.2933 68.5368 23.0047 68.0625 23.8003C67.6035 24.5806 67.0757 25.3149 66.479 26.0034C65.8823 26.6919 65.2091 27.2733 64.4595 27.7476C63.7251 28.2218 62.9142 28.459 62.0269 28.459C61.4761 28.459 60.9559 28.3519 60.4663 28.1377C59.9767 27.9388 59.5483 27.6481 59.1812 27.2656C58.8293 26.8678 58.5462 26.3859 58.332 25.8198C58.1178 25.2384 58.0107 24.5882 58.0107 23.8691C58.0107 23.1042 58.0872 22.3468 58.2402 21.5972C58.3932 20.8322 58.4697 20.1055 58.4697 19.417C58.4697 19.1263 58.4009 18.9121 58.2632 18.7744C58.1408 18.6214 57.8577 18.5449 57.4141 18.5449C57.1999 18.5449 56.9627 18.5449 56.7026 18.5449C56.4578 18.5449 56.1901 18.5526 55.8994 18.5679ZM54.3618 16.8696C54.3618 16.7625 54.3542 16.6248 54.3389 16.4565C54.3389 16.2729 54.3236 16.097 54.293 15.9287C54.2777 15.7604 54.2471 15.6151 54.2012 15.4927C54.1706 15.3703 54.1323 15.3091 54.0864 15.3091C54.0405 15.3091 53.9793 15.3703 53.9028 15.4927C53.8416 15.5998 53.7728 15.7375 53.6963 15.9058C53.6198 16.0588 53.5509 16.2271 53.4897 16.4106C53.4285 16.5942 53.3826 16.7472 53.3521 16.8696H54.3618ZM78.3438 25.4756C77.9613 25.4756 77.6247 25.445 77.334 25.3838C77.1045 25.8428 76.8291 26.2712 76.5078 26.6689C76.1865 27.0514 75.8117 27.388 75.3833 27.6787C74.9702 27.9694 74.5036 28.1989 73.9834 28.3672C73.4632 28.5355 72.8971 28.6196 72.2852 28.6196C71.5661 28.6196 70.9082 28.4896 70.3115 28.2295C69.7148 27.9847 69.1947 27.6405 68.751 27.1968C68.3073 26.7378 67.9631 26.1947 67.7183 25.5674C67.4735 24.9248 67.3511 24.221 67.3511 23.4561C67.3511 22.4769 67.527 21.6278 67.8789 20.9087C68.2308 20.1743 68.6362 19.57 69.0952 19.0957C69.5542 18.6061 70.0132 18.2466 70.4722 18.0171C70.9312 17.7723 71.2754 17.6499 71.5049 17.6499C71.765 17.6499 71.9562 17.7188 72.0786 17.8564C72.2163 17.9941 72.2852 18.1777 72.2852 18.4072C72.2852 18.6673 72.201 18.8662 72.0327 19.0039C71.8797 19.1263 71.6808 19.2487 71.436 19.3711C71.1912 19.4935 70.9312 19.6694 70.6558 19.8989C70.3804 20.1131 70.1203 20.3885 69.8755 20.7251C69.646 21.0617 69.4548 21.4595 69.3018 21.9185C69.1488 22.3774 69.0723 22.89 69.0723 23.4561C69.0723 23.9609 69.1488 24.4352 69.3018 24.8789C69.4548 25.3073 69.6766 25.6821 69.9673 26.0034C70.258 26.3094 70.6022 26.5542 71 26.7378C71.3978 26.9061 71.8415 26.9902 72.3311 26.9902C73.2031 26.9902 73.9222 26.7913 74.4883 26.3936C75.0697 25.9805 75.5133 25.4603 75.8193 24.833C74.9167 24.3587 74.1746 23.6855 73.5933 22.8135C73.0119 21.9414 72.7212 20.9622 72.7212 19.876C72.7212 19.0039 72.9277 18.2925 73.3408 17.7417C73.7692 17.1909 74.3276 16.9155 75.0161 16.9155C75.4292 16.9155 75.8193 17.015 76.1865 17.2139C76.5537 17.4128 76.875 17.7264 77.1504 18.1548C77.4411 18.5832 77.6706 19.134 77.8389 19.8071C78.0072 20.4803 78.0913 21.2835 78.0913 22.2168C78.0913 22.7064 78.0301 23.2189 77.9077 23.7544C77.9995 23.7697 78.0913 23.7773 78.1831 23.7773C78.2749 23.7773 78.3743 23.7773 78.4814 23.7773C79.0016 23.7773 79.4683 23.7161 79.8813 23.5938C80.2944 23.4714 80.6693 23.2878 81.0059 23.043C81.3424 22.7982 81.6408 22.4845 81.9009 22.1021C82.1763 21.7196 82.4364 21.2759 82.6812 20.771C82.7271 20.6792 82.8265 20.5951 82.9795 20.5186C83.1325 20.4268 83.2855 20.3809 83.4385 20.3809C83.6374 20.3809 83.821 20.465 83.9893 20.6333C84.1729 20.7863 84.2646 20.9928 84.2646 21.2529C84.2646 21.3753 84.234 21.513 84.1729 21.666C84.1117 21.8037 84.0505 21.9338 83.9893 22.0562C83.7292 22.5151 83.4232 22.9588 83.0713 23.3872C82.7347 23.8003 82.3293 24.1675 81.855 24.4888C81.396 24.7948 80.8758 25.0396 80.2944 25.2231C79.7131 25.4067 79.0628 25.4909 78.3438 25.4756ZM74.4194 19.6924C74.4194 19.9831 74.4577 20.2891 74.5342 20.6104C74.6107 20.9316 74.7254 21.2529 74.8784 21.5742C75.0467 21.8802 75.2456 22.1785 75.4751 22.4692C75.7199 22.7446 76.0029 22.9818 76.3242 23.1807C76.3701 22.8594 76.3931 22.5457 76.3931 22.2397C76.3931 21.8267 76.3625 21.4059 76.3013 20.9775C76.2401 20.5492 76.1483 20.159 76.0259 19.8071C75.9188 19.4399 75.7811 19.1493 75.6128 18.9351C75.4445 18.7056 75.2456 18.5908 75.0161 18.5908C74.9243 18.5908 74.8019 18.6597 74.6489 18.7974C74.4959 18.9351 74.4194 19.2334 74.4194 19.6924Z" fill="#D77F7F"/>
        <path d="M96.7031 9.98486C96.7031 10.5662 96.4966 11.0635 96.0835 11.4766C95.6857 11.8743 95.1961 12.0732 94.6147 12.0732C94.0334 12.0732 93.5361 11.8743 93.123 11.4766C92.7253 11.0635 92.5264 10.5662 92.5264 9.98486C92.5264 9.69417 92.5799 9.42643 92.687 9.18164C92.7941 8.92155 92.9395 8.69971 93.123 8.51611C93.3219 8.31722 93.5438 8.16423 93.7886 8.05713C94.0487 7.95003 94.3241 7.89648 94.6147 7.89648C94.9054 7.89648 95.1732 7.95003 95.418 8.05713C95.6781 8.16423 95.8999 8.31722 96.0835 8.51611C96.2824 8.69971 96.4354 8.92155 96.5425 9.18164C96.6496 9.42643 96.7031 9.69417 96.7031 9.98486ZM92.9854 23.4331C92.9854 21.23 93.123 19.0345 93.3984 16.8467C93.429 16.6325 93.5208 16.4489 93.6738 16.2959C93.8421 16.1276 94.0563 16.0435 94.3164 16.0435C94.5459 16.0435 94.7371 16.1353 94.8901 16.3188C95.0431 16.4871 95.1196 16.686 95.1196 16.9155C95.1196 17.0073 95.0967 17.2827 95.0508 17.7417C95.0202 18.2007 94.9743 18.7515 94.9131 19.394C94.8672 20.0213 94.8213 20.6945 94.7754 21.4136C94.7448 22.1174 94.7295 22.7676 94.7295 23.3643C94.7295 24.1751 94.806 24.833 94.959 25.3379C95.1273 25.8275 95.3338 26.21 95.5786 26.4854C95.8387 26.7607 96.1064 26.9443 96.3818 27.0361C96.6725 27.1279 96.9479 27.1738 97.208 27.1738C97.6364 27.1738 98.0801 27.0208 98.5391 26.7148C98.998 26.4089 99.4647 25.9805 99.939 25.4297C100.429 24.8789 100.918 24.221 101.408 23.4561C101.897 22.6758 102.379 21.8114 102.854 20.8628C102.93 20.7098 103.037 20.5951 103.175 20.5186C103.312 20.4268 103.465 20.3809 103.634 20.3809C103.879 20.3809 104.077 20.4727 104.23 20.6562C104.399 20.8398 104.483 21.0387 104.483 21.2529C104.483 21.4059 104.452 21.536 104.391 21.6431C104.208 21.995 103.978 22.4233 103.703 22.9282C103.427 23.4331 103.114 23.9533 102.762 24.4888C102.41 25.0243 102.02 25.5597 101.591 26.0952C101.178 26.6154 100.735 27.0897 100.26 27.5181C99.786 27.9312 99.2887 28.2677 98.7686 28.5278C98.2484 28.7879 97.7205 28.918 97.1851 28.918C96.4966 28.918 95.8923 28.7726 95.3721 28.4819C94.8519 28.1912 94.4082 27.8011 94.041 27.3115C93.6891 26.8219 93.4214 26.2482 93.2378 25.5903C93.0695 24.9172 92.9854 24.1981 92.9854 23.4331ZM95.418 9.98486C95.418 9.77067 95.3338 9.58708 95.1655 9.43408C95.0125 9.26579 94.8289 9.18164 94.6147 9.18164C94.4006 9.18164 94.217 9.26579 94.064 9.43408C93.911 9.58708 93.8345 9.77067 93.8345 9.98486C93.8345 10.1991 93.911 10.3826 94.064 10.5356C94.217 10.6886 94.4006 10.7651 94.6147 10.7651C94.8289 10.7651 95.0125 10.6886 95.1655 10.5356C95.3338 10.3826 95.418 10.1991 95.418 9.98486ZM107.925 25.9346C108.17 25.4297 108.453 24.8789 108.774 24.2822C109.096 23.6702 109.44 23.0583 109.807 22.4463C110.174 21.819 110.557 21.1994 110.955 20.5874C111.368 19.9754 111.796 19.394 112.24 18.8433C112.683 18.3078 113.127 17.9253 113.571 17.6958C114.03 17.451 114.458 17.3286 114.856 17.3286C115.652 17.3286 116.241 17.6193 116.623 18.2007C117.006 18.7821 117.197 19.5011 117.197 20.3579C117.197 20.5568 117.181 20.8016 117.151 21.0923C117.136 21.3677 117.113 21.666 117.082 21.9873C117.067 22.3086 117.044 22.6375 117.013 22.9741C116.998 23.2954 116.99 23.6014 116.99 23.8921C116.99 24.2593 117.006 24.6112 117.036 24.9478C117.082 25.2843 117.159 25.5827 117.266 25.8428C117.373 26.0876 117.526 26.2865 117.725 26.4395C117.924 26.5771 118.184 26.646 118.505 26.646C119.086 26.646 119.652 26.4242 120.203 25.9805C120.754 25.5215 121.259 24.986 121.718 24.374C122.192 23.7467 122.597 23.1118 122.934 22.4692C123.286 21.8267 123.546 21.3065 123.714 20.9087C123.791 20.7404 123.898 20.6104 124.036 20.5186C124.189 20.4268 124.349 20.3809 124.518 20.3809C124.778 20.3809 124.984 20.4803 125.137 20.6792C125.306 20.8628 125.39 21.0617 125.39 21.2759C125.39 21.383 125.367 21.4901 125.321 21.5972C125.26 21.7196 125.137 21.972 124.954 22.3545C124.77 22.737 124.525 23.1807 124.219 23.6855C123.929 24.1751 123.584 24.703 123.187 25.269C122.789 25.8198 122.345 26.3247 121.855 26.7837C121.381 27.2427 120.861 27.6252 120.295 27.9312C119.744 28.2371 119.163 28.3901 118.551 28.3901C117.862 28.3901 117.304 28.2601 116.875 28C116.447 27.7246 116.111 27.3727 115.866 26.9443C115.621 26.5007 115.453 26.0187 115.361 25.4985C115.284 24.9631 115.246 24.4276 115.246 23.8921C115.246 23.6626 115.254 23.4025 115.269 23.1118C115.3 22.8211 115.33 22.5151 115.361 22.1938C115.407 21.8726 115.437 21.5513 115.453 21.23C115.483 20.9087 115.499 20.6027 115.499 20.312C115.499 19.8224 115.422 19.4935 115.269 19.3252C115.116 19.1416 114.978 19.0498 114.856 19.0498C114.611 19.0498 114.328 19.1951 114.007 19.4858C113.701 19.7612 113.372 20.1284 113.02 20.5874C112.683 21.0464 112.332 21.5666 111.964 22.1479C111.612 22.714 111.276 23.2801 110.955 23.8462C110.649 24.4123 110.358 24.9554 110.083 25.4756C109.822 25.9805 109.616 26.4012 109.463 26.7378C109.157 27.3804 108.851 27.8088 108.545 28.0229C108.239 28.2524 107.925 28.3672 107.604 28.3672C107.16 28.3672 106.801 28.2371 106.525 27.9771C106.265 27.7017 106.135 27.3192 106.135 26.8296C106.135 26.7225 106.151 26.516 106.181 26.21C106.212 25.8887 106.25 25.5138 106.296 25.0854C106.342 24.6418 106.388 24.1675 106.434 23.6626C106.479 23.1577 106.525 22.6605 106.571 22.1709C106.617 21.666 106.655 21.1994 106.686 20.771C106.717 20.3426 106.732 19.9831 106.732 19.6924C106.732 19.3099 106.717 18.9427 106.686 18.5908C106.655 18.2389 106.594 18.0247 106.502 17.9482C106.365 17.9941 106.12 18.2848 105.768 18.8203C105.416 19.3405 104.965 20.2661 104.414 21.5972C104.338 21.7655 104.223 21.8955 104.07 21.9873C103.917 22.0791 103.756 22.125 103.588 22.125C103.328 22.125 103.121 22.0409 102.968 21.8726C102.815 21.689 102.739 21.4824 102.739 21.2529C102.739 21.1458 102.762 21.0311 102.808 20.9087C103.496 19.2716 104.139 18.0706 104.735 17.3057C105.347 16.5254 105.952 16.1353 106.548 16.1353C106.9 16.1353 107.199 16.2271 107.443 16.4106C107.688 16.5789 107.879 16.8084 108.017 17.0991C108.17 17.3898 108.277 17.7111 108.338 18.063C108.415 18.4149 108.453 18.7744 108.453 19.1416C108.453 19.417 108.43 19.8454 108.384 20.4268C108.354 21.0081 108.308 21.6354 108.247 22.3086C108.185 22.9665 108.124 23.6243 108.063 24.2822C108.017 24.9401 107.971 25.4909 107.925 25.9346ZM126.308 19.5088C126.216 19.7536 126.101 20.029 125.963 20.335C125.841 20.641 125.696 20.9622 125.527 21.2988C125.39 21.5589 125.244 21.7655 125.091 21.9185C124.954 22.0562 124.77 22.125 124.541 22.125C124.28 22.125 124.074 22.0485 123.921 21.8955C123.768 21.7272 123.691 21.536 123.691 21.3218C123.691 21.2453 123.699 21.1841 123.714 21.1382C123.73 21.077 123.768 20.9852 123.829 20.8628C124.227 20.0978 124.518 19.4323 124.701 18.8662C124.9 18.2848 125.061 17.6805 125.183 17.0532C125.076 16.7013 125 16.403 124.954 16.1582C124.908 15.9134 124.885 15.661 124.885 15.4009C124.885 14.896 124.992 14.4906 125.206 14.1846C125.42 13.8633 125.719 13.7026 126.101 13.7026C126.453 13.7026 126.728 13.8556 126.927 14.1616C127.141 14.4676 127.249 14.8424 127.249 15.2861C127.249 15.5309 127.226 15.7757 127.18 16.0205C127.134 16.2653 127.073 16.5713 126.996 16.9385C127.348 17.8105 127.7 18.5832 128.052 19.2563C128.404 19.9295 128.717 20.5492 128.993 21.1152C129.268 21.666 129.49 22.1862 129.658 22.6758C129.842 23.1654 129.934 23.6549 129.934 24.1445C129.934 24.7871 129.804 25.3991 129.543 25.9805C129.283 26.5618 128.855 27.0514 128.258 27.4492C128.335 27.4645 128.411 27.4722 128.488 27.4722C128.564 27.4722 128.641 27.4722 128.717 27.4722C129.589 27.4722 130.393 27.2733 131.127 26.8755C131.861 26.4777 132.519 25.9652 133.101 25.3379C133.697 24.6953 134.225 23.9915 134.684 23.2266C135.143 22.4463 135.541 21.6737 135.877 20.9087C136.03 20.5568 136.245 20.3809 136.52 20.3809C136.78 20.3809 136.979 20.4727 137.117 20.6562C137.27 20.8398 137.346 21.0387 137.346 21.2529C137.346 21.3753 137.323 21.4901 137.277 21.5972C137.109 22.0103 136.887 22.4845 136.612 23.02C136.352 23.5402 136.03 24.0833 135.648 24.6494C135.281 25.2002 134.852 25.7433 134.363 26.2788C133.873 26.8143 133.322 27.2962 132.71 27.7246C132.114 28.1377 131.456 28.4666 130.737 28.7114C130.018 28.9715 129.23 29.1016 128.373 29.1016C127.348 29.1016 126.392 28.918 125.504 28.5508C124.632 28.1989 123.921 27.6099 123.37 26.7837C123.278 26.646 123.232 26.5007 123.232 26.3477C123.232 26.1182 123.317 25.9193 123.485 25.751C123.668 25.5674 123.875 25.4756 124.104 25.4756C124.349 25.4756 124.556 25.5597 124.724 25.728C124.739 25.7586 124.793 25.8122 124.885 25.8887C124.977 25.9499 125.084 26.0264 125.206 26.1182C125.344 26.1947 125.497 26.2635 125.665 26.3247C125.849 26.3859 126.032 26.4165 126.216 26.4165C126.583 26.4165 126.889 26.34 127.134 26.187C127.394 26.034 127.6 25.8504 127.753 25.6362C127.906 25.4067 128.014 25.1696 128.075 24.9248C128.151 24.6647 128.189 24.4429 128.189 24.2593C128.189 23.8768 128.128 23.4943 128.006 23.1118C127.883 22.7293 127.723 22.3468 127.524 21.9644C127.34 21.5819 127.134 21.1917 126.904 20.7939C126.69 20.3809 126.491 19.9525 126.308 19.5088ZM154.283 5.02783C154.283 5.27262 154.199 5.47152 154.03 5.62451C153.862 5.76221 153.655 5.83105 153.411 5.83105H141.775V6.0835C141.775 7.01676 141.707 8.01123 141.569 9.06689C141.431 10.1226 141.24 11.1782 140.995 12.2339C140.766 13.2743 140.498 14.2917 140.192 15.2861C139.901 16.2806 139.595 17.1986 139.274 18.04C138.968 18.8815 138.662 19.6159 138.356 20.2432C138.05 20.8551 137.775 21.3141 137.53 21.6201C137.729 22.3239 137.966 22.9818 138.241 23.5938C138.517 24.1904 138.823 24.7183 139.159 25.1772C139.511 25.6209 139.886 25.9728 140.284 26.2329C140.681 26.493 141.11 26.623 141.569 26.623C142.104 26.623 142.632 26.4012 143.152 25.9575C143.688 25.4985 144.177 24.9631 144.621 24.3511C145.08 23.7238 145.478 23.0965 145.814 22.4692C146.166 21.8267 146.419 21.3141 146.572 20.9316C146.725 20.5645 146.993 20.3809 147.375 20.3809C147.635 20.3809 147.842 20.4727 147.995 20.6562C148.163 20.8398 148.247 21.0387 148.247 21.2529C148.247 21.36 148.224 21.4671 148.178 21.5742C148.132 21.6813 148.018 21.9261 147.834 22.3086C147.666 22.6911 147.436 23.1348 147.146 23.6396C146.87 24.1445 146.541 24.68 146.159 25.2461C145.792 25.7969 145.371 26.3018 144.896 26.7607C144.438 27.2197 143.94 27.6022 143.405 27.9082C142.869 28.2142 142.303 28.3672 141.707 28.3672C140.651 28.3672 139.702 28.0229 138.861 27.3345C138.019 26.646 137.3 25.6821 136.704 24.4429C136.122 23.2036 135.679 21.7349 135.373 20.0366C135.067 18.3384 134.914 16.4795 134.914 14.46C134.914 13.9551 134.921 13.366 134.937 12.6929C134.952 12.0044 134.982 11.2853 135.028 10.5356C135.074 9.77067 135.143 8.9904 135.235 8.19482C135.327 7.38395 135.449 6.59603 135.602 5.83105H127.363C127.118 5.83105 126.912 5.76221 126.744 5.62451C126.575 5.47152 126.491 5.27262 126.491 5.02783C126.491 4.78304 126.575 4.5918 126.744 4.4541C126.912 4.30111 127.118 4.22461 127.363 4.22461H135.992C136.145 3.67383 136.321 3.16895 136.52 2.70996C136.734 2.25098 136.971 1.85319 137.231 1.5166C137.507 1.18001 137.805 0.919922 138.126 0.736328C138.463 0.537435 138.83 0.437988 139.228 0.437988C139.611 0.437988 139.939 0.537435 140.215 0.736328C140.506 0.919922 140.75 1.18001 140.949 1.5166C141.148 1.85319 141.301 2.25098 141.408 2.70996C141.531 3.16895 141.622 3.67383 141.684 4.22461H153.411C153.655 4.22461 153.862 4.30111 154.03 4.4541C154.199 4.5918 154.283 4.78304 154.283 5.02783ZM137.002 19.3252C137.461 18.3154 137.874 17.2292 138.241 16.0664C138.624 14.8883 138.945 13.7026 139.205 12.5093C139.48 11.3159 139.687 10.1455 139.825 8.99805C139.978 7.85059 140.054 6.79492 140.054 5.83105H137.346C137.132 6.77962 136.956 7.95768 136.818 9.36523C136.696 10.7575 136.635 12.4557 136.635 14.46C136.635 15.5768 136.665 16.5177 136.727 17.2827C136.788 18.0324 136.88 18.7132 137.002 19.3252ZM139.136 2.15918C138.999 2.15918 138.8 2.31217 138.54 2.61816C138.279 2.90885 138.019 3.44434 137.759 4.22461H139.962C139.886 3.58203 139.771 3.07715 139.618 2.70996C139.48 2.34277 139.32 2.15918 139.136 2.15918ZM137.369 20.9775V21.0005V20.9775ZM164.403 21.5972C164.342 21.7196 164.212 21.9797 164.013 22.3774C163.83 22.7599 163.585 23.2036 163.279 23.7085C162.988 24.2134 162.644 24.7412 162.246 25.292C161.848 25.8428 161.405 26.3477 160.915 26.8066C160.425 27.2656 159.898 27.6481 159.332 27.9541C158.765 28.2448 158.169 28.3901 157.542 28.3901C156.654 28.3901 155.904 28.1071 155.292 27.541C154.696 26.9749 154.26 26.2635 153.984 25.4067C153.464 26.2788 152.845 26.9749 152.125 27.4951C151.406 28 150.687 28.2524 149.968 28.2524C149.402 28.2524 148.89 28.153 148.431 27.9541C147.972 27.7399 147.582 27.4492 147.26 27.082C146.939 26.6995 146.687 26.2559 146.503 25.751C146.335 25.2461 146.25 24.6953 146.25 24.0986C146.25 22.9053 146.449 21.8573 146.847 20.9546C147.26 20.0366 147.78 19.2716 148.408 18.6597C149.035 18.0477 149.723 17.5887 150.473 17.2827C151.238 16.9767 151.972 16.8237 152.676 16.8237C153.151 16.8237 153.587 16.8926 153.984 17.0303C154.382 17.1527 154.719 17.2904 154.994 17.4434C155.285 17.5964 155.507 17.7417 155.66 17.8794C155.813 18.0018 155.897 18.0706 155.912 18.0859C156.08 18.2848 156.165 18.4914 156.165 18.7056C156.165 18.9351 156.08 19.1416 155.912 19.3252C155.744 19.4935 155.545 19.5776 155.315 19.5776C155.071 19.5776 154.864 19.4935 154.696 19.3252C154.665 19.2946 154.596 19.241 154.489 19.1646C154.382 19.0728 154.237 18.981 154.053 18.8892C153.87 18.7974 153.648 18.7209 153.388 18.6597C153.143 18.5832 152.86 18.5449 152.539 18.5449C152.064 18.5449 151.559 18.652 151.024 18.8662C150.488 19.0804 149.999 19.417 149.555 19.876C149.111 20.3197 148.737 20.8857 148.431 21.5742C148.14 22.2474 147.995 23.0506 147.995 23.9839C147.995 24.2746 148.025 24.5729 148.086 24.8789C148.148 25.1696 148.255 25.4373 148.408 25.6821C148.561 25.9269 148.767 26.1258 149.027 26.2788C149.287 26.4318 149.609 26.5083 149.991 26.5083C150.267 26.5083 150.58 26.4165 150.932 26.2329C151.299 26.0493 151.644 25.7663 151.965 25.3838C152.301 25.0013 152.6 24.5194 152.86 23.938C153.135 23.3566 153.326 22.6681 153.434 21.8726C153.464 21.6584 153.564 21.4824 153.732 21.3447C153.9 21.1917 154.099 21.1152 154.329 21.1152C154.543 21.1152 154.726 21.1994 154.879 21.3677C155.048 21.536 155.139 21.7272 155.155 21.9414C155.17 22.2321 155.201 22.6452 155.247 23.1807C155.292 23.7008 155.392 24.221 155.545 24.7412C155.713 25.2614 155.958 25.7127 156.279 26.0952C156.601 26.4777 157.044 26.6689 157.61 26.6689C157.978 26.6689 158.337 26.5695 158.689 26.3706C159.056 26.1717 159.408 25.9116 159.745 25.5903C160.097 25.2537 160.425 24.8789 160.731 24.4658C161.053 24.0374 161.343 23.609 161.604 23.1807C161.864 22.7523 162.093 22.3392 162.292 21.9414C162.491 21.5436 162.659 21.1994 162.797 20.9087C162.873 20.7404 162.98 20.6104 163.118 20.5186C163.271 20.4268 163.432 20.3809 163.6 20.3809C163.86 20.3809 164.067 20.4803 164.22 20.6792C164.388 20.8628 164.472 21.0617 164.472 21.2759C164.472 21.383 164.449 21.4901 164.403 21.5972ZM171.127 30.249C174.004 26.5007 176 23.3872 177.117 20.9087C177.194 20.7404 177.293 20.618 177.416 20.5415C177.553 20.4497 177.706 20.4038 177.875 20.4038C178.135 20.4038 178.349 20.4956 178.517 20.6792C178.685 20.8475 178.77 21.0464 178.77 21.2759C178.77 21.383 178.747 21.4901 178.701 21.5972C178.028 23.1271 177.071 24.833 175.832 26.7148C174.593 28.5967 173.025 30.7233 171.127 33.0947C171.127 34.0586 171.135 35.0225 171.15 35.9863C171.166 36.9502 171.173 38.0059 171.173 39.1533C171.173 40.3008 171.143 41.4329 171.082 42.5498C171.036 43.682 170.944 44.7529 170.806 45.7627C170.668 46.7878 170.477 47.7287 170.232 48.5854C170.003 49.4575 169.697 50.2072 169.314 50.8345C168.947 51.4771 168.496 51.9743 167.96 52.3262C167.44 52.6934 166.821 52.877 166.102 52.877C165.076 52.877 164.289 52.4868 163.738 51.7065C163.187 50.9263 162.912 49.8171 162.912 48.3789C162.912 47.6139 162.98 46.7801 163.118 45.8774C163.271 44.9901 163.485 44.0721 163.761 43.1235C164.036 42.175 164.365 41.2111 164.748 40.2319C165.145 39.2681 165.581 38.3271 166.056 37.4092C166.53 36.4912 167.042 35.6115 167.593 34.77C168.159 33.9285 168.756 33.1636 169.383 32.4751C169.399 31.4041 169.406 30.3408 169.406 29.2852C169.422 28.2295 169.444 27.258 169.475 26.3706C169.016 26.952 168.465 27.411 167.823 27.7476C167.195 28.0841 166.568 28.2524 165.941 28.2524C165.405 28.2524 164.916 28.153 164.472 27.9541C164.044 27.7399 163.677 27.4492 163.371 27.082C163.065 26.6995 162.827 26.2559 162.659 25.751C162.491 25.2461 162.407 24.6953 162.407 24.0986C162.407 22.9053 162.606 21.8573 163.003 20.9546C163.417 20.0366 163.937 19.2716 164.564 18.6597C165.191 18.0477 165.88 17.5887 166.629 17.2827C167.394 16.9767 168.129 16.8237 168.833 16.8237C169.307 16.8237 169.743 16.8849 170.141 17.0073C170.538 17.1297 170.875 17.2674 171.15 17.4204C171.441 17.5734 171.663 17.7188 171.816 17.8564C171.969 17.9941 172.053 18.0706 172.068 18.0859C172.237 18.2695 172.321 18.4761 172.321 18.7056C172.321 18.9351 172.237 19.1416 172.068 19.3252C171.9 19.4935 171.701 19.5776 171.472 19.5776C171.257 19.5776 171.051 19.4935 170.852 19.3252C170.791 19.2793 170.707 19.2181 170.6 19.1416C170.508 19.0498 170.378 18.958 170.209 18.8662C170.056 18.7744 169.865 18.6979 169.636 18.6367C169.422 18.5755 169.161 18.5449 168.855 18.5449C168.396 18.5449 167.892 18.652 167.341 18.8662C166.79 19.0651 166.278 19.3864 165.803 19.8301C165.329 20.2738 164.931 20.8475 164.61 21.5513C164.289 22.2397 164.128 23.0736 164.128 24.0527C164.128 24.7871 164.289 25.3838 164.61 25.8428C164.931 26.2865 165.428 26.5083 166.102 26.5083C166.423 26.5083 166.759 26.4165 167.111 26.2329C167.479 26.0493 167.83 25.7663 168.167 25.3838C168.504 25.0013 168.794 24.5194 169.039 23.938C169.299 23.3566 169.483 22.6681 169.59 21.8726C169.62 21.6584 169.72 21.4824 169.888 21.3447C170.056 21.1917 170.255 21.1152 170.485 21.1152C170.745 21.1152 170.944 21.207 171.082 21.3906C171.235 21.5742 171.311 21.7808 171.311 22.0103C171.311 22.0256 171.303 22.2627 171.288 22.7217C171.273 23.1654 171.257 23.762 171.242 24.5117C171.227 25.2614 171.204 26.1335 171.173 27.1279C171.158 28.1071 171.143 29.1475 171.127 30.249ZM169.383 35.2749C168.664 36.2694 168.014 37.348 167.433 38.5107C166.851 39.6888 166.354 40.8745 165.941 42.0679C165.528 43.2612 165.207 44.4163 164.977 45.5332C164.763 46.6654 164.656 47.6751 164.656 48.5625C164.656 49.1286 164.702 49.5799 164.793 49.9165C164.901 50.2531 165.023 50.5132 165.161 50.6968C165.314 50.8804 165.474 51.0028 165.643 51.064C165.826 51.1252 165.994 51.1558 166.147 51.1558C166.622 51.1558 167.035 50.9645 167.387 50.582C167.739 50.1995 168.037 49.687 168.282 49.0444C168.527 48.4172 168.725 47.6904 168.878 46.8643C169.031 46.0381 169.146 45.1813 169.223 44.2939C169.299 43.4219 169.353 42.5498 169.383 41.6777C169.414 40.8057 169.429 40.0024 169.429 39.2681C169.429 38.6102 169.429 37.9523 169.429 37.2944C169.429 36.6366 169.414 35.9634 169.383 35.2749ZM179.55 18.5679C179.489 18.981 179.412 19.3711 179.32 19.7383C179.229 20.0902 179.137 20.4038 179.045 20.6792C178.968 20.9393 178.9 21.1535 178.838 21.3218C178.777 21.4901 178.739 21.5819 178.724 21.5972C178.571 21.9491 178.303 22.125 177.92 22.125C177.706 22.125 177.507 22.0485 177.324 21.8955C177.14 21.7272 177.048 21.5207 177.048 21.2759C177.048 21.1841 177.064 21.1152 177.094 21.0693C177.125 21.0234 177.171 20.9316 177.232 20.7939C177.293 20.6562 177.37 20.4268 177.461 20.1055C177.553 19.7842 177.668 19.2869 177.806 18.6138C177.546 18.6138 177.278 18.6061 177.002 18.5908C176.727 18.5755 176.475 18.522 176.245 18.4302C176 18.3384 175.801 18.193 175.648 17.9941C175.495 17.7952 175.419 17.5199 175.419 17.168C175.419 16.9079 175.495 16.556 175.648 16.1123C175.786 15.6686 175.977 15.2326 176.222 14.8042C176.467 14.3758 176.742 14.0086 177.048 13.7026C177.354 13.3813 177.66 13.2207 177.966 13.2207C178.318 13.2207 178.601 13.3507 178.815 13.6108C179.045 13.8709 179.221 14.1922 179.343 14.5747C179.466 14.9419 179.55 15.332 179.596 15.7451C179.657 16.1582 179.688 16.5177 179.688 16.8237C179.948 16.8237 180.2 16.8237 180.445 16.8237C180.705 16.8084 180.95 16.8008 181.179 16.8008C182.051 16.8008 182.717 16.992 183.176 17.3745C183.635 17.757 183.864 18.3843 183.864 19.2563C183.864 19.6082 183.841 19.9754 183.795 20.3579C183.75 20.7404 183.696 21.1382 183.635 21.5513C183.574 21.9491 183.52 22.3468 183.474 22.7446C183.428 23.1424 183.405 23.5326 183.405 23.915C183.405 24.4658 183.482 24.9248 183.635 25.292C183.788 25.6439 183.979 25.9269 184.208 26.1411C184.438 26.3553 184.683 26.5083 184.943 26.6001C185.203 26.6766 185.44 26.7148 185.654 26.7148C186.312 26.7148 186.932 26.5007 187.513 26.0723C188.095 25.6439 188.63 25.1313 189.12 24.5347C189.609 23.9227 190.045 23.2801 190.428 22.6069C190.826 21.9338 191.154 21.3447 191.415 20.8398C191.491 20.7021 191.598 20.5951 191.736 20.5186C191.874 20.4421 192.019 20.4038 192.172 20.4038C192.447 20.4038 192.661 20.4956 192.814 20.6792C192.967 20.8475 193.044 21.0387 193.044 21.2529C193.044 21.4059 193.013 21.5436 192.952 21.666C192.6 22.2933 192.187 23.0047 191.713 23.8003C191.254 24.5806 190.726 25.3149 190.129 26.0034C189.533 26.6919 188.86 27.2733 188.11 27.7476C187.375 28.2218 186.565 28.459 185.677 28.459C185.126 28.459 184.606 28.3519 184.117 28.1377C183.627 27.9388 183.199 27.6481 182.832 27.2656C182.48 26.8678 182.197 26.3859 181.982 25.8198C181.768 25.2384 181.661 24.5882 181.661 23.8691C181.661 23.1042 181.738 22.3468 181.891 21.5972C182.044 20.8322 182.12 20.1055 182.12 19.417C182.12 19.1263 182.051 18.9121 181.914 18.7744C181.791 18.6214 181.508 18.5449 181.064 18.5449C180.85 18.5449 180.613 18.5449 180.353 18.5449C180.108 18.5449 179.84 18.5526 179.55 18.5679ZM178.012 16.8696C178.012 16.7625 178.005 16.6248 177.989 16.4565C177.989 16.2729 177.974 16.097 177.943 15.9287C177.928 15.7604 177.897 15.6151 177.852 15.4927C177.821 15.3703 177.783 15.3091 177.737 15.3091C177.691 15.3091 177.63 15.3703 177.553 15.4927C177.492 15.5998 177.423 15.7375 177.347 15.9058C177.27 16.0588 177.201 16.2271 177.14 16.4106C177.079 16.5942 177.033 16.7472 177.002 16.8696H178.012ZM209.154 21.5972C209.093 21.7196 208.963 21.9797 208.764 22.3774C208.581 22.7599 208.336 23.2036 208.03 23.7085C207.739 24.2134 207.395 24.7412 206.997 25.292C206.599 25.8428 206.156 26.3477 205.666 26.8066C205.176 27.2656 204.649 27.6481 204.083 27.9541C203.516 28.2448 202.92 28.3901 202.292 28.3901C201.405 28.3901 200.655 28.1071 200.043 27.541C199.447 26.9749 199.011 26.2635 198.735 25.4067C198.215 26.2788 197.596 26.9749 196.876 27.4951C196.157 28 195.438 28.2524 194.719 28.2524C194.153 28.2524 193.641 28.153 193.182 27.9541C192.723 27.7399 192.333 27.4492 192.011 27.082C191.69 26.6995 191.438 26.2559 191.254 25.751C191.086 25.2461 191.001 24.6953 191.001 24.0986C191.001 22.9053 191.2 21.8573 191.598 20.9546C192.011 20.0366 192.531 19.2716 193.159 18.6597C193.786 18.0477 194.474 17.5887 195.224 17.2827C195.989 16.9767 196.723 16.8237 197.427 16.8237C197.902 16.8237 198.338 16.8926 198.735 17.0303C199.133 17.1527 199.47 17.2904 199.745 17.4434C200.036 17.5964 200.258 17.7417 200.411 17.8794C200.564 18.0018 200.648 18.0706 200.663 18.0859C200.831 18.2848 200.916 18.4914 200.916 18.7056C200.916 18.9351 200.831 19.1416 200.663 19.3252C200.495 19.4935 200.296 19.5776 200.066 19.5776C199.822 19.5776 199.615 19.4935 199.447 19.3252C199.416 19.2946 199.347 19.241 199.24 19.1646C199.133 19.0728 198.988 18.981 198.804 18.8892C198.621 18.7974 198.399 18.7209 198.139 18.6597C197.894 18.5832 197.611 18.5449 197.29 18.5449C196.815 18.5449 196.31 18.652 195.775 18.8662C195.239 19.0804 194.75 19.417 194.306 19.876C193.862 20.3197 193.488 20.8857 193.182 21.5742C192.891 22.2474 192.746 23.0506 192.746 23.9839C192.746 24.2746 192.776 24.5729 192.837 24.8789C192.899 25.1696 193.006 25.4373 193.159 25.6821C193.312 25.9269 193.518 26.1258 193.778 26.2788C194.038 26.4318 194.36 26.5083 194.742 26.5083C195.018 26.5083 195.331 26.4165 195.683 26.2329C196.05 26.0493 196.395 25.7663 196.716 25.3838C197.052 25.0013 197.351 24.5194 197.611 23.938C197.886 23.3566 198.077 22.6681 198.185 21.8726C198.215 21.6584 198.315 21.4824 198.483 21.3447C198.651 21.1917 198.85 21.1152 199.08 21.1152C199.294 21.1152 199.477 21.1994 199.63 21.3677C199.799 21.536 199.89 21.7272 199.906 21.9414C199.921 22.2321 199.952 22.6452 199.998 23.1807C200.043 23.7008 200.143 24.221 200.296 24.7412C200.464 25.2614 200.709 25.7127 201.03 26.0952C201.352 26.4777 201.795 26.6689 202.361 26.6689C202.729 26.6689 203.088 26.5695 203.44 26.3706C203.807 26.1717 204.159 25.9116 204.496 25.5903C204.847 25.2537 205.176 24.8789 205.482 24.4658C205.804 24.0374 206.094 23.609 206.354 23.1807C206.615 22.7523 206.844 22.3392 207.043 21.9414C207.242 21.5436 207.41 21.1994 207.548 20.9087C207.624 20.7404 207.731 20.6104 207.869 20.5186C208.022 20.4268 208.183 20.3809 208.351 20.3809C208.611 20.3809 208.818 20.4803 208.971 20.6792C209.139 20.8628 209.223 21.0617 209.223 21.2759C209.223 21.383 209.2 21.4901 209.154 21.5972ZM212.872 25.9575C213.102 25.4985 213.392 24.9325 213.744 24.2593C214.111 23.5708 214.486 22.8823 214.869 22.1938C215.266 21.5054 215.649 20.8551 216.016 20.2432C216.399 19.6312 216.72 19.1646 216.98 18.8433C217.424 18.3078 217.883 17.9253 218.357 17.6958C218.831 17.4663 219.267 17.3516 219.665 17.3516C220.063 17.3516 220.399 17.4357 220.675 17.604C220.965 17.7723 221.203 18.0018 221.386 18.2925C221.57 18.5679 221.708 18.8968 221.799 19.2793C221.891 19.6465 221.937 20.0443 221.937 20.4727C221.937 20.7174 221.922 21.0387 221.891 21.4365C221.876 21.8343 221.853 22.2627 221.822 22.7217C221.807 23.1807 221.784 23.6549 221.753 24.1445C221.738 24.6341 221.723 25.0931 221.708 25.5215C221.937 25.0625 222.197 24.5576 222.488 24.0068C222.778 23.4408 223.069 22.8823 223.36 22.3315C223.666 21.7808 223.957 21.2682 224.232 20.7939C224.507 20.3044 224.76 19.9066 224.989 19.6006C225.647 18.6979 226.259 18.0936 226.825 17.7876C227.407 17.4816 227.919 17.3286 228.363 17.3286C228.883 17.3286 229.311 17.4281 229.648 17.627C229.985 17.8105 230.245 18.0553 230.428 18.3613C230.627 18.652 230.765 18.981 230.841 19.3481C230.918 19.7153 230.956 20.0672 230.956 20.4038C230.956 20.924 230.918 21.4671 230.841 22.0332C230.765 22.5993 230.727 23.2725 230.727 24.0527C230.727 24.374 230.742 24.6953 230.772 25.0166C230.803 25.3379 230.864 25.6209 230.956 25.8657C231.063 26.1105 231.224 26.3094 231.438 26.4624C231.652 26.6154 231.943 26.6919 232.31 26.6919C232.708 26.6919 233.098 26.5924 233.48 26.3936C233.863 26.1794 234.23 25.904 234.582 25.5674C234.934 25.2308 235.263 24.8483 235.569 24.4199C235.89 23.9915 236.181 23.5632 236.441 23.1348C236.701 22.7064 236.931 22.3009 237.129 21.9185C237.328 21.5207 237.489 21.1841 237.611 20.9087C237.688 20.7404 237.795 20.6104 237.933 20.5186C238.07 20.4268 238.223 20.3809 238.392 20.3809C238.652 20.3809 238.858 20.4803 239.011 20.6792C239.18 20.8628 239.264 21.0617 239.264 21.2759C239.264 21.383 239.241 21.4901 239.195 21.5972C239.134 21.7196 239.011 21.9797 238.828 22.3774C238.644 22.7599 238.399 23.2036 238.093 23.7085C237.787 24.1981 237.428 24.7183 237.015 25.269C236.617 25.8198 236.173 26.3324 235.684 26.8066C235.194 27.2656 234.666 27.6481 234.1 27.9541C233.534 28.2448 232.937 28.3901 232.31 28.3901C231.637 28.3901 231.086 28.2677 230.658 28.0229C230.245 27.7935 229.908 27.4798 229.648 27.082C229.403 26.6842 229.235 26.2253 229.143 25.7051C229.051 25.1849 229.005 24.6418 229.005 24.0757C229.005 23.326 229.044 22.6375 229.12 22.0103C229.197 21.3677 229.235 20.8704 229.235 20.5186C229.235 20.1361 229.197 19.8454 229.12 19.6465C229.059 19.4476 228.975 19.3099 228.868 19.2334C228.776 19.1416 228.684 19.0957 228.592 19.0957C228.5 19.0804 228.432 19.0728 228.386 19.0728C228.019 19.0728 227.628 19.2793 227.215 19.6924C226.818 20.0902 226.404 20.6257 225.976 21.2988C225.548 21.972 225.104 22.737 224.645 23.5938C224.201 24.4505 223.75 25.3226 223.291 26.21C223.031 26.6995 222.809 27.105 222.625 27.4263C222.457 27.7476 222.289 28 222.121 28.1836C221.968 28.3672 221.815 28.4972 221.662 28.5737C221.509 28.6502 221.34 28.6885 221.157 28.6885C220.759 28.6885 220.453 28.5508 220.239 28.2754C220.04 28 219.94 27.6405 219.94 27.1968C219.94 26.9673 219.948 26.6613 219.963 26.2788C219.979 25.8963 219.994 25.4756 220.009 25.0166C220.025 24.5576 220.048 24.0833 220.078 23.5938C220.109 23.1042 220.132 22.6375 220.147 22.1938C220.162 21.7349 220.178 21.3294 220.193 20.9775C220.208 20.6257 220.216 20.3579 220.216 20.1743C220.216 19.7765 220.147 19.4935 220.009 19.3252C219.872 19.1416 219.711 19.0498 219.527 19.0498C219.359 19.0498 219.168 19.111 218.954 19.2334C218.755 19.3558 218.518 19.5929 218.242 19.9448C218.028 20.2202 217.753 20.6257 217.416 21.1611C217.095 21.6813 216.75 22.2627 216.383 22.9053C216.016 23.5479 215.649 24.2057 215.282 24.8789C214.93 25.5521 214.624 26.1564 214.364 26.6919C214.042 27.3345 213.721 27.7705 213.4 28C213.079 28.2448 212.765 28.3672 212.459 28.3672C212.015 28.3672 211.686 28.2371 211.472 27.9771C211.258 27.7017 211.151 27.3421 211.151 26.8984C211.151 26.8525 211.159 26.5771 211.174 26.0723C211.204 25.5674 211.235 24.9554 211.266 24.2363C211.296 23.502 211.327 22.7217 211.357 21.8955C211.403 21.0693 211.442 20.2967 211.472 19.5776C211.487 19.1951 211.472 18.8433 211.426 18.522C211.38 18.2007 211.319 18.0094 211.243 17.9482C211.12 17.9788 210.875 18.2619 210.508 18.7974C210.156 19.3328 209.705 20.2661 209.154 21.5972C209.078 21.7655 208.963 21.8955 208.81 21.9873C208.657 22.0791 208.496 22.125 208.328 22.125C208.068 22.125 207.861 22.0409 207.708 21.8726C207.556 21.689 207.479 21.4824 207.479 21.2529C207.479 21.1458 207.502 21.0311 207.548 20.9087C208.236 19.2716 208.894 18.0706 209.521 17.3057C210.149 16.5254 210.761 16.1353 211.357 16.1353C211.709 16.1353 212 16.2194 212.229 16.3877C212.474 16.5407 212.666 16.7472 212.803 17.0073C212.941 17.2521 213.04 17.5352 213.102 17.8564C213.163 18.1777 213.193 18.4914 213.193 18.7974C213.193 20.159 213.155 21.4059 213.079 22.5381C213.017 23.6702 212.949 24.8101 212.872 25.9575Z" fill="#638FFF"/>
    </svg> 