<svg width="62" height="62" viewBox="0 0 62 62" fill="none" xmlns="http://www.w3.org/2000/svg">
<circle cx="31" cy="31" r="31" fill="white"/>
<path d="M12.5439 37.9575C12.7734 37.4985 13.0641 36.9325 13.416 36.2593C13.7832 35.5708 14.158 34.8823 14.5405 34.1938C14.9383 33.5054 15.3208 32.8551 15.688 32.2432C16.0705 31.6312 16.3918 31.1646 16.6519 30.8433C17.0955 30.3078 17.5545 29.9253 18.0288 29.6958C18.5031 29.4663 18.9391 29.3516 19.3369 29.3516C19.7347 29.3516 20.0713 29.4357 20.3467 29.604C20.6374 29.7723 20.8745 30.0018 21.0581 30.2925C21.2417 30.5679 21.3794 30.8968 21.4712 31.2793C21.563 31.6465 21.6089 32.0443 21.6089 32.4727C21.6089 32.7174 21.5936 33.0387 21.563 33.4365C21.5477 33.8343 21.5247 34.2627 21.4941 34.7217C21.4788 35.1807 21.4559 35.6549 21.4253 36.1445C21.41 36.6341 21.3947 37.0931 21.3794 37.5215C21.6089 37.0625 21.869 36.5576 22.1597 36.0068C22.4504 35.4408 22.741 34.8823 23.0317 34.3315C23.3377 33.7808 23.6284 33.2682 23.9038 32.7939C24.1792 32.3044 24.4316 31.9066 24.6611 31.6006C25.319 30.6979 25.931 30.0936 26.4971 29.7876C27.0785 29.4816 27.591 29.3286 28.0347 29.3286C28.5549 29.3286 28.9832 29.4281 29.3198 29.627C29.6564 29.8105 29.9165 30.0553 30.1001 30.3613C30.299 30.652 30.4367 30.981 30.5132 31.3481C30.5897 31.7153 30.6279 32.0672 30.6279 32.4038C30.6279 32.924 30.5897 33.4671 30.5132 34.0332C30.4367 34.5993 30.3984 35.2725 30.3984 36.0527C30.3984 36.374 30.4137 36.6953 30.4443 37.0166C30.4749 37.3379 30.5361 37.6209 30.6279 37.8657C30.735 38.1105 30.8957 38.3094 31.1099 38.4624C31.3241 38.6154 31.6147 38.6919 31.9819 38.6919C32.3797 38.6919 32.7699 38.5924 33.1523 38.3936C33.5348 38.1794 33.902 37.904 34.2539 37.5674C34.6058 37.2308 34.9347 36.8483 35.2407 36.4199C35.562 35.9915 35.8527 35.5632 36.1128 35.1348C36.3729 34.7064 36.6024 34.3009 36.8013 33.9185C37.0002 33.5207 37.1608 33.1841 37.2832 32.9087C37.3597 32.7404 37.4668 32.6104 37.6045 32.5186C37.7422 32.4268 37.8952 32.3809 38.0635 32.3809C38.3236 32.3809 38.5301 32.4803 38.6831 32.6792C38.8514 32.8628 38.9355 33.0617 38.9355 33.2759C38.9355 33.383 38.9126 33.4901 38.8667 33.5972C38.8055 33.7196 38.6831 33.9797 38.4995 34.3774C38.3159 34.7599 38.0711 35.2036 37.7651 35.7085C37.4591 36.1981 37.0996 36.7183 36.6865 37.269C36.2887 37.8198 35.8451 38.3324 35.3555 38.8066C34.8659 39.2656 34.3381 39.6481 33.772 39.9541C33.2059 40.2448 32.6092 40.3901 31.9819 40.3901C31.3088 40.3901 30.758 40.2677 30.3296 40.0229C29.9165 39.7935 29.5799 39.4798 29.3198 39.082C29.075 38.6842 28.9067 38.2253 28.8149 37.7051C28.7231 37.1849 28.6772 36.6418 28.6772 36.0757C28.6772 35.326 28.7155 34.6375 28.792 34.0103C28.8685 33.3677 28.9067 32.8704 28.9067 32.5186C28.9067 32.1361 28.8685 31.8454 28.792 31.6465C28.7308 31.4476 28.6466 31.3099 28.5396 31.2334C28.4478 31.1416 28.356 31.0957 28.2642 31.0957C28.1724 31.0804 28.1035 31.0728 28.0576 31.0728C27.6904 31.0728 27.3003 31.2793 26.8872 31.6924C26.4894 32.0902 26.0763 32.6257 25.6479 33.2988C25.2196 33.972 24.7759 34.737 24.3169 35.5938C23.8732 36.4505 23.4219 37.3226 22.9629 38.21C22.7028 38.6995 22.481 39.105 22.2974 39.4263C22.1291 39.7476 21.9608 40 21.7925 40.1836C21.6395 40.3672 21.4865 40.4972 21.3335 40.5737C21.1805 40.6502 21.0122 40.6885 20.8286 40.6885C20.4308 40.6885 20.1248 40.5508 19.9106 40.2754C19.7118 40 19.6123 39.6405 19.6123 39.1968C19.6123 38.9673 19.62 38.6613 19.6353 38.2788C19.6506 37.8963 19.6659 37.4756 19.6812 37.0166C19.6965 36.5576 19.7194 36.0833 19.75 35.5938C19.7806 35.1042 19.8035 34.6375 19.8188 34.1938C19.8341 33.7349 19.8494 33.3294 19.8647 32.9775C19.88 32.6257 19.8877 32.3579 19.8877 32.1743C19.8877 31.7765 19.8188 31.4935 19.6812 31.3252C19.5435 31.1416 19.3828 31.0498 19.1992 31.0498C19.0309 31.0498 18.8397 31.111 18.6255 31.2334C18.4266 31.3558 18.1895 31.5929 17.9141 31.9448C17.6999 32.2202 17.4245 32.6257 17.0879 33.1611C16.7666 33.6813 16.4224 34.2627 16.0552 34.9053C15.688 35.5479 15.3208 36.2057 14.9536 36.8789C14.6017 37.5521 14.2957 38.1564 14.0356 38.6919C13.7144 39.3345 13.3931 39.7705 13.0718 40C12.7505 40.2448 12.4368 40.3672 12.1309 40.3672C11.6872 40.3672 11.3582 40.2371 11.144 39.9771C10.9299 39.7017 10.8228 39.3421 10.8228 38.8984C10.8228 38.8525 10.8304 38.5771 10.8457 38.0723C10.8763 37.5674 10.9069 36.9554 10.9375 36.2363C10.9681 35.502 10.9987 34.7217 11.0293 33.8955C11.0752 33.0693 11.1134 32.2967 11.144 31.5776C11.1593 31.1951 11.144 30.8433 11.0981 30.522C11.0522 30.2007 10.991 30.0094 10.9146 29.9482C10.7922 29.9788 10.5474 30.2619 10.1802 30.7974C9.82829 31.3328 9.37695 32.2661 8.82617 33.5972C8.74967 33.7655 8.63493 33.8955 8.48193 33.9873C8.32894 34.0791 8.16829 34.125 8 34.125C7.73991 34.125 7.53337 34.0409 7.38037 33.8726C7.22738 33.689 7.15088 33.4824 7.15088 33.2529C7.15088 33.1458 7.17383 33.0311 7.21973 32.9087C7.9082 31.2716 8.56608 30.0706 9.19336 29.3057C9.82064 28.5254 10.4326 28.1353 11.0293 28.1353C11.3812 28.1353 11.6719 28.2194 11.9014 28.3877C12.1462 28.5407 12.3374 28.7472 12.4751 29.0073C12.6128 29.2521 12.7122 29.5352 12.7734 29.8564C12.8346 30.1777 12.8652 30.4914 12.8652 30.7974C12.8652 32.159 12.827 33.4059 12.7505 34.5381C12.6893 35.6702 12.6204 36.8101 12.5439 37.9575Z" fill="#D77F7F"/>
<path d="M51.374 21.9849C51.374 22.5662 51.1675 23.0635 50.7544 23.4766C50.3566 23.8743 49.867 24.0732 49.2856 24.0732C48.7043 24.0732 48.207 23.8743 47.7939 23.4766C47.3962 23.0635 47.1973 22.5662 47.1973 21.9849C47.1973 21.6942 47.2508 21.4264 47.3579 21.1816C47.465 20.9215 47.6104 20.6997 47.7939 20.5161C47.9928 20.3172 48.2147 20.1642 48.4595 20.0571C48.7196 19.95 48.995 19.8965 49.2856 19.8965C49.5763 19.8965 49.8441 19.95 50.0889 20.0571C50.349 20.1642 50.5708 20.3172 50.7544 20.5161C50.9533 20.6997 51.1063 20.9215 51.2134 21.1816C51.3205 21.4264 51.374 21.6942 51.374 21.9849ZM47.6562 35.4331C47.6562 33.23 47.7939 31.0345 48.0693 28.8467C48.0999 28.6325 48.1917 28.4489 48.3447 28.2959C48.513 28.1276 48.7272 28.0435 48.9873 28.0435C49.2168 28.0435 49.408 28.1353 49.561 28.3188C49.714 28.4871 49.7905 28.686 49.7905 28.9155C49.7905 29.0073 49.7676 29.2827 49.7217 29.7417C49.6911 30.2007 49.6452 30.7515 49.584 31.394C49.5381 32.0213 49.4922 32.6945 49.4463 33.4136C49.4157 34.1174 49.4004 34.7676 49.4004 35.3643C49.4004 36.1751 49.4769 36.833 49.6299 37.3379C49.7982 37.8275 50.0047 38.21 50.2495 38.4854C50.5096 38.7607 50.7773 38.9443 51.0527 39.0361C51.3434 39.1279 51.6188 39.1738 51.8789 39.1738C52.3073 39.1738 52.751 39.0208 53.21 38.7148C53.6689 38.4089 54.1356 37.9805 54.6099 37.4297C55.0994 36.8789 55.589 36.221 56.0786 35.4561C56.5682 34.6758 57.0501 33.8114 57.5244 32.8628C57.6009 32.7098 57.708 32.5951 57.8457 32.5186C57.9834 32.4268 58.1364 32.3809 58.3047 32.3809C58.5495 32.3809 58.7484 32.4727 58.9014 32.6562C59.0697 32.8398 59.1538 33.0387 59.1538 33.2529C59.1538 33.4059 59.1232 33.536 59.062 33.6431C58.8784 33.995 58.6489 34.4233 58.3735 34.9282C58.0981 35.4331 57.7845 35.9533 57.4326 36.4888C57.0807 37.0243 56.6906 37.5597 56.2622 38.0952C55.8491 38.6154 55.4054 39.0897 54.9312 39.5181C54.4569 39.9312 53.9596 40.2677 53.4395 40.5278C52.9193 40.7879 52.3914 40.918 51.856 40.918C51.1675 40.918 50.5632 40.7726 50.043 40.4819C49.5228 40.1912 49.0791 39.8011 48.7119 39.3115C48.36 38.8219 48.0923 38.2482 47.9087 37.5903C47.7404 36.9172 47.6562 36.1981 47.6562 35.4331ZM50.0889 21.9849C50.0889 21.7707 50.0047 21.5871 49.8364 21.4341C49.6834 21.2658 49.4998 21.1816 49.2856 21.1816C49.0715 21.1816 48.8879 21.2658 48.7349 21.4341C48.5819 21.5871 48.5054 21.7707 48.5054 21.9849C48.5054 22.1991 48.5819 22.3826 48.7349 22.5356C48.8879 22.6886 49.0715 22.7651 49.2856 22.7651C49.4998 22.7651 49.6834 22.6886 49.8364 22.5356C50.0047 22.3826 50.0889 22.1991 50.0889 21.9849Z" fill="#638FFF"/>
</svg>
